<?xml version="1.0" encoding="UTF-8"?>
<svg xmlns="http://www.w3.org/2000/svg" xmlns:xlink="http://www.w3.org/1999/xlink" width="2751.39pt" height="1081.07pt" viewBox="0 0 2751.39 1081.07" version="1.1">
<defs>
<clipPath id="clip1">
  <path d="M 0 171 L 403 171 L 403 1081.070313 L 0 1081.070313 Z M 0 171 "/>
</clipPath>
<clipPath id="clip2">
  <path d="M 2664 727 L 2751.390625 727 L 2751.390625 825 L 2664 825 Z M 2664 727 "/>
</clipPath>
</defs>
<g id="surface1">
<path style=" stroke:none;fill-rule:nonzero;fill:rgb(7.099915%,33.299255%,54.899597%);fill-opacity:1;" d="M 829.671875 597.382813 C 821.921875 593.601563 821.382813 591.617188 821.382813 577.382813 C 821.382813 550.890625 823.542969 529.808594 824.085938 521.335938 C 824.625 515.570313 825.707031 512.867188 828.589844 512.867188 C 832.011719 512.867188 832.375 514.488281 832.375 518.8125 C 832.375 523.5 832.375 530.886719 833.996094 538.277344 C 842.285156 577.382813 878.867188 592.15625 916.171875 592.15625 C 969.332031 592.15625 995.460938 555.578125 995.460938 521.878906 C 995.460938 485.476563 979.421875 464.210938 931.667969 426.730469 L 906.617188 407.085938 C 847.871094 361.132813 834.535156 328.335938 834.535156 292.476563 C 834.535156 235.890625 878.867188 197.324219 949.328125 197.324219 C 970.953125 197.324219 986.992188 199.488281 1000.871094 202.550781 C 1011.320313 204.714844 1015.820313 205.253906 1020.328125 205.253906 C 1024.648438 205.253906 1025.921875 206.335938 1025.921875 208.859375 C 1025.921875 211.5625 1023.75 229.042969 1023.75 264.902344 C 1023.75 273.375 1022.671875 276.976563 1019.96875 276.976563 C 1016.539063 276.976563 1016.179688 274.273438 1015.460938 270.128906 C 1014.921875 263.820313 1008.25 243.640625 1008.25 243.640625 C 1008.25 243.640625 990.054688 215.707031 938.875 215.707031 C 900.671875 215.707031 870.578125 238.414063 870.578125 276.976563 C 870.578125 307.070313 886.074219 325.09375 938.335938 365.636719 L 953.832031 377.351563 C 1019.429688 426.546875 1034.929688 459.164063 1034.929688 501.515625 C 1034.929688 523.140625 1026.101563 563.324219 987.710938 589.273438 C 963.925781 605.132813 933.828125 611.441406 903.914063 611.441406 C 877.964844 611.621094 852.378906 608.015625 829.671875 597.382813 "/>
<path style=" stroke:none;fill-rule:nonzero;fill:rgb(7.099915%,33.299255%,54.899597%);fill-opacity:1;" d="M 1559.328125 541.699219 C 1561.488281 560.800781 1565.449219 590.355469 1589.238281 597.746094 C 1605.460938 602.609375 1619.699219 602.609375 1625.28125 602.609375 C 1627.988281 602.609375 1629.609375 603.152344 1629.609375 605.132813 C 1629.609375 608.378906 1624.558594 610 1617.890625 610 C 1605.640625 610 1545.808594 608.378906 1525.269531 606.753906 C 1512.46875 605.855469 1509.769531 604.230469 1509.769531 601.527344 C 1509.769531 599.367188 1510.851563 598.285156 1513.550781 597.746094 C 1516.441406 597.203125 1516.800781 588.195313 1515.71875 578.640625 L 1489.050781 305.992188 L 1487.421875 305.992188 L 1351.371094 580.804688 C 1339.648438 604.050781 1338.03125 608.917969 1332.988281 608.917969 C 1329.199219 608.917969 1326.320313 603.691406 1315.871094 584.589844 C 1301.449219 558.640625 1253.699219 467.273438 1250.988281 462.050781 C 1245.949219 452.496094 1183.78125 325.632813 1177.648438 311.394531 L 1175.488281 311.394531 L 1153.320313 556.65625 C 1152.78125 565.128906 1152.78125 574.679688 1152.78125 583.6875 C 1152.78125 591.617188 1158.910156 598.464844 1167.199219 600.085938 C 1176.570313 602.25 1184.859375 602.789063 1188.28125 602.789063 C 1190.441406 602.789063 1192.789063 603.871094 1192.789063 605.3125 C 1192.789063 609.097656 1189.359375 610.179688 1182.699219 610.179688 C 1162.148438 610.179688 1135.480469 608.558594 1131.160156 608.558594 C 1126.289063 608.558594 1099.621094 610.179688 1084.660156 610.179688 C 1079.078125 610.179688 1075.109375 609.097656 1075.109375 605.3125 C 1075.109375 603.691406 1078 602.789063 1080.699219 602.789063 C 1085.019531 602.789063 1088.988281 602.789063 1097.28125 601.167969 C 1115.660156 597.925781 1117.28125 577.382813 1119.441406 557.199219 L 1159.449219 212.644531 C 1160.53125 206.875 1162.148438 203.09375 1165.578125 203.09375 C 1169 203.09375 1171.160156 205.253906 1173.859375 211.019531 L 1343.621094 543.503906 L 1506.710938 211.5625 C 1508.871094 206.875 1511.210938 203.09375 1515 203.09375 C 1518.960938 203.09375 1520.578125 207.238281 1521.660156 217.328125 L 1559.328125 541.699219 "/>
<path style=" stroke:none;fill-rule:nonzero;fill:rgb(7.099915%,33.299255%,54.899597%);fill-opacity:1;" d="M 1657.898438 358.070313 C 1657.898438 275.535156 1657.898438 260.757813 1656.820313 243.820313 C 1655.738281 225.800781 1651.230469 217.328125 1633.03125 213.726563 C 1628.519531 212.644531 1619.148438 212.101563 1614.109375 212.101563 C 1611.769531 212.101563 1609.601563 211.019531 1609.601563 208.859375 C 1609.601563 205.796875 1612.488281 204.714844 1618.429688 204.714844 C 1643.480469 204.714844 1677.359375 206.335938 1682.230469 206.335938 C 1687.269531 206.335938 1720.429688 204.714844 1737.191406 204.714844 C 1743.320313 204.714844 1746.019531 205.796875 1746.019531 208.859375 C 1746.019531 211.019531 1743.859375 212.101563 1741.519531 212.101563 C 1737.550781 212.101563 1734.308594 212.644531 1727.640625 213.726563 C 1712.679688 215.886719 1708.179688 225.257813 1707.101563 243.820313 C 1706.011719 260.757813 1706.011719 275.535156 1706.011719 358.070313 L 1706.011719 432.136719 C 1706.011719 508.363281 1723.851563 540.980469 1747.640625 562.785156 C 1774.851563 587.113281 1799.898438 591.796875 1831.441406 591.796875 C 1865.320313 591.796875 1898.660156 576.480469 1918.480469 553.773438 C 1944.070313 523.679688 1950.730469 478.628906 1950.730469 424.207031 L 1950.730469 358.070313 C 1950.730469 275.535156 1950.730469 260.757813 1949.648438 243.820313 C 1948.570313 225.800781 1944.070313 217.328125 1925.871094 213.726563 C 1921.359375 212.644531 1911.988281 212.101563 1906.941406 212.101563 C 1904.78125 212.101563 1902.441406 211.019531 1902.441406 208.859375 C 1902.441406 205.796875 1905.140625 204.714844 1911.269531 204.714844 C 1936.320313 204.714844 1966.769531 206.335938 1970.019531 206.335938 C 1973.980469 206.335938 2000.109375 204.714844 2016.691406 204.714844 C 2022.820313 204.714844 2025.519531 205.796875 2025.519531 208.859375 C 2025.519531 211.019531 2023.359375 212.101563 2021.191406 212.101563 C 2017.230469 212.101563 2013.988281 212.101563 2007.320313 213.726563 C 1992.359375 216.429688 1987.859375 225.257813 1986.769531 243.820313 C 1985.691406 260.757813 1985.691406 275.535156 1985.691406 358.070313 L 1985.691406 414.476563 C 1985.691406 471.601563 1979.03125 535.03125 1934.691406 572.515625 C 1894.691406 606.394531 1853.058594 611.621094 1820.269531 611.621094 C 1801.519531 611.621094 1745.480469 609.457031 1706.019531 574.136719 C 1678.980469 549.269531 1657.898438 512.328125 1657.898438 435.199219 L 1657.898438 358.070313 "/>
<path style=" stroke:none;fill-rule:nonzero;fill:rgb(7.099915%,33.299255%,54.899597%);fill-opacity:1;" d="M 520.796875 610.359375 L 409.789063 508.722656 L 409.609375 508.722656 L 298.421875 610.359375 L 409.609375 574.496094 L 409.789063 574.496094 L 520.796875 610.359375 "/>
<path style=" stroke:none;fill-rule:nonzero;fill:rgb(7.099915%,33.299255%,54.899597%);fill-opacity:1;" d="M 409.789063 508.542969 L 446.371094 407.988281 L 528.1875 398.074219 Z M 409.789063 508.542969 "/>
<path style=" stroke:none;fill-rule:nonzero;fill:rgb(7.099915%,33.299255%,54.899597%);fill-opacity:1;" d="M 610.71875 430.875 L 528.1875 398.074219 L 525.84375 262.921875 Z M 610.71875 430.875 "/>
<path style=" stroke:none;fill-rule:nonzero;fill:rgb(7.099915%,33.299255%,54.899597%);fill-opacity:1;" d="M 546.023438 202.011719 L 628.5625 202.011719 L 525.84375 263.101563 Z M 546.023438 202.011719 "/>
<path style=" stroke:none;fill-rule:nonzero;fill:rgb(63.09967%,55.299377%,41.999817%);fill-opacity:1;" d="M 409.609375 508.542969 L 373.027344 407.988281 L 291.214844 398.074219 Z M 409.609375 508.542969 "/>
<path style=" stroke:none;fill-rule:nonzero;fill:rgb(63.09967%,55.299377%,41.999817%);fill-opacity:1;" d="M 208.679688 430.875 L 291.214844 398.074219 L 293.558594 262.921875 Z M 208.679688 430.875 "/>
<path style=" stroke:none;fill-rule:nonzero;fill:rgb(63.09967%,55.299377%,41.999817%);fill-opacity:1;" d="M 273.375 202.011719 L 190.839844 202.011719 L 293.558594 263.101563 Z M 273.375 202.011719 "/>
<path style=" stroke:none;fill-rule:nonzero;fill:rgb(63.09967%,55.299377%,41.999817%);fill-opacity:1;" d="M 692.714844 0 C 619.007813 69.378906 568.371094 38.929688 542.421875 33.339844 C 528.726563 27.75 511.605469 24.511719 492.863281 24.511719 C 447.8125 24.511719 411.410156 43.609375 411.410156 67.398438 C 411.410156 75.871094 416.277344 83.976563 424.386719 90.464844 C 432.855469 82.714844 445.832031 76.410156 461.507813 72.621094 C 477.367188 69.921875 504.398438 67.761719 536.292969 75.871094 C 539.179688 76.589844 542.242188 77.488281 545.484375 78.390625 C 549.269531 79.648438 552.871094 80.371094 555.757813 80.910156 C 557.199219 81.273438 558.28125 81.453125 559.722656 81.632813 C 643.15625 100.195313 693.253906 58.210938 693.253906 58.210938 L 692.714844 0 "/>
<g clip-path="url(#clip1)" clip-rule="nonzero">
<path style=" stroke:none;fill-rule:nonzero;fill:rgb(7.099915%,33.299255%,54.899597%);fill-opacity:1;" d="M 402.222656 729.113281 C 402.222656 729.113281 355.726563 728.933594 333.019531 717.941406 C 291.753906 698.121094 284.003906 637.03125 278.777344 586.570313 C 278.238281 580.984375 239.855469 568.910156 221.652344 552.152344 C 191.921875 524.941406 196.605469 440.425781 196.605469 435.019531 C 196.605469 429.613281 148.488281 406.003906 148.488281 353.566406 C 148.488281 331.398438 148.851563 207.597656 148.851563 207.597656 C 117.496094 168.671875 97.671875 168.132813 72.621094 175.882813 C 41.628906 185.792969 32.617188 208.679688 0.359375 213.363281 C 0.359375 220.390625 0 589.636719 0 589.636719 C 0 703.34375 20.90625 781.914063 137.496094 869.316406 C 245.621094 950.410156 329.238281 948.425781 402.222656 1081.058594 C 403.480469 1083.398438 402.582031 729.113281 402.222656 729.113281 "/>
</g>
<path style=" stroke:none;fill-rule:nonzero;fill:rgb(7.099915%,33.299255%,54.899597%);fill-opacity:1;" d="M 823.722656 822.824219 C 821.742188 821.921875 821.199219 821.199219 821.199219 818.496094 C 821.199219 811.46875 821.742188 803.902344 821.921875 801.917969 C 822.101563 799.9375 822.460938 798.675781 823.542969 798.675781 C 824.625 798.675781 824.804688 799.757813 824.804688 800.835938 C 824.804688 802.460938 825.34375 805.160156 825.886719 807.324219 C 828.769531 816.695313 836.339844 820.117188 844.265625 820.117188 C 855.800781 820.117188 861.386719 812.371094 861.386719 805.703125 C 861.386719 799.574219 859.402344 793.628906 848.773438 785.519531 L 842.824219 781.015625 C 828.769531 770.203125 823.902344 761.371094 823.902344 751.101563 C 823.902344 737.226563 835.796875 727.3125 853.457031 727.3125 C 861.746094 727.3125 867.152344 728.574219 870.578125 729.476563 C 871.839844 729.65625 872.378906 730.015625 872.378906 731.097656 C 872.378906 732.71875 871.839844 736.324219 871.839844 746.234375 C 871.839844 748.9375 871.480469 750.019531 870.398438 750.019531 C 869.496094 750.019531 869.136719 749.296875 869.136719 747.675781 C 869.136719 746.59375 868.414063 742.628906 865.710938 739.386719 C 863.730469 737.042969 860.125 733.257813 851.65625 733.257813 C 842.105469 733.257813 836.339844 738.667969 836.339844 746.234375 C 836.339844 752 839.402344 756.507813 850.035156 764.4375 L 853.636719 767.140625 C 869.136719 778.851563 874.722656 787.320313 874.722656 799.214844 C 874.722656 806.605469 871.839844 815.253906 862.648438 821.199219 C 856.160156 825.164063 849.132813 826.425781 842.285156 826.425781 C 834.894531 826.066406 829.128906 825.164063 823.722656 822.824219 "/>
<path style=" stroke:none;fill-rule:nonzero;fill:rgb(7.099915%,33.299255%,54.899597%);fill-opacity:1;" d="M 905.898438 765.515625 C 905.898438 746.414063 905.898438 742.8125 905.71875 738.847656 C 905.355469 734.519531 904.097656 732.359375 901.394531 731.816406 C 899.949219 731.457031 898.328125 731.277344 896.707031 731.277344 C 895.445313 731.277344 894.726563 731.097656 894.726563 730.015625 C 894.726563 729.296875 895.808594 729.113281 897.789063 729.113281 C 902.652344 729.113281 910.765625 729.476563 914.367188 729.476563 C 917.609375 729.476563 925.179688 729.113281 930.046875 729.113281 C 931.667969 729.113281 932.75 729.296875 932.75 730.015625 C 932.75 731.097656 932.027344 731.277344 930.765625 731.277344 C 929.503906 731.277344 928.425781 731.457031 926.980469 731.636719 C 923.558594 732.359375 922.476563 734.519531 922.296875 738.847656 C 922.117188 742.8125 922.117188 746.414063 922.117188 765.515625 L 922.117188 787.683594 C 922.117188 799.9375 922.117188 809.847656 922.65625 815.253906 C 923.015625 818.675781 923.917969 821.019531 927.703125 821.382813 C 929.503906 821.5625 932.386719 821.921875 934.191406 821.921875 C 935.632813 821.921875 936.171875 822.28125 936.171875 822.824219 C 936.171875 823.722656 935.089844 824.085938 933.648438 824.085938 C 925.179688 824.085938 917.070313 823.722656 913.644531 823.722656 C 910.765625 823.722656 902.652344 824.085938 897.609375 824.085938 C 895.988281 824.085938 895.085938 823.722656 895.085938 822.824219 C 895.085938 822.28125 895.625 821.921875 897.066406 821.921875 C 899.050781 821.921875 900.492188 821.742188 901.753906 821.382813 C 904.277344 820.839844 905.175781 818.675781 905.535156 815.074219 C 906.257813 809.847656 906.257813 799.9375 906.257813 787.683594 L 906.257813 765.515625 L 905.898438 765.515625 "/>
<path style=" stroke:none;fill-rule:nonzero;fill:rgb(7.099915%,33.299255%,54.899597%);fill-opacity:1;" d="M 971.671875 807.144531 C 972.03125 817.054688 973.65625 820.300781 976.179688 821.019531 C 978.339844 821.742188 980.683594 821.921875 982.847656 821.921875 C 984.289063 821.921875 985.007813 822.101563 985.007813 822.824219 C 985.007813 823.902344 983.925781 824.085938 982.125 824.085938 C 973.835938 824.085938 968.609375 823.722656 966.269531 823.722656 C 965.1875 823.722656 959.058594 824.085938 952.390625 824.085938 C 950.769531 824.085938 949.507813 823.902344 949.507813 822.824219 C 949.507813 822.101563 950.230469 821.921875 951.488281 821.921875 C 953.113281 821.921875 955.453125 821.742188 957.257813 821.199219 C 960.679688 820.117188 961.039063 816.515625 961.222656 805.523438 L 962.300781 730.917969 C 962.300781 728.394531 962.664063 726.59375 963.925781 726.59375 C 965.367188 726.59375 966.445313 728.214844 968.609375 730.558594 C 970.230469 732.179688 989.691406 752.722656 1008.441406 771.101563 C 1017.078125 779.753906 1034.378906 797.773438 1036.550781 799.9375 L 1037.269531 799.9375 L 1036.011719 743.351563 C 1035.828125 735.601563 1034.75 733.257813 1031.679688 732 C 1029.699219 731.277344 1026.640625 731.277344 1024.828125 731.277344 C 1023.210938 731.277344 1022.851563 730.917969 1022.851563 730.195313 C 1022.851563 729.113281 1024.289063 729.113281 1026.269531 729.113281 C 1032.941406 729.113281 1039.070313 729.476563 1041.769531 729.476563 C 1043.210938 729.476563 1048.078125 729.113281 1054.390625 729.113281 C 1056.011719 729.113281 1057.269531 729.296875 1057.269531 730.195313 C 1057.269531 730.917969 1056.550781 731.277344 1054.929688 731.277344 C 1053.671875 731.277344 1052.589844 731.277344 1051.140625 731.636719 C 1047.539063 732.71875 1046.640625 735.242188 1046.460938 742.449219 L 1045.019531 822.101563 C 1045.019531 824.804688 1044.480469 826.066406 1043.398438 826.066406 C 1041.949219 826.066406 1040.511719 824.625 1039.070313 823.183594 C 1030.960938 815.613281 1014.558594 799.035156 1001.230469 786.058594 C 987.171875 772.363281 972.933594 756.6875 970.773438 754.34375 L 970.410156 754.34375 L 971.671875 807.144531 "/>
<path style=" stroke:none;fill-rule:nonzero;fill:rgb(7.099915%,33.299255%,54.899597%);fill-opacity:1;" d="M 1163.769531 815.972656 C 1163.769531 819.398438 1163.589844 819.578125 1162.148438 820.480469 C 1153.859375 824.804688 1141.25 826.246094 1131.339844 826.246094 C 1099.980469 826.246094 1072.050781 811.648438 1072.050781 776.871094 C 1072.050781 756.6875 1082.679688 742.628906 1094.390625 735.601563 C 1106.648438 728.394531 1118.179688 727.492188 1128.808594 727.492188 C 1137.640625 727.492188 1149 728.933594 1151.519531 729.476563 C 1154.21875 730.015625 1158.730469 730.738281 1161.609375 730.917969 C 1163.230469 731.097656 1163.410156 731.457031 1163.410156 732.359375 C 1163.410156 733.800781 1162.511719 737.226563 1162.511719 753.082031 C 1162.511719 755.066406 1162.148438 755.785156 1161.070313 755.785156 C 1160.171875 755.785156 1159.808594 755.066406 1159.808594 754.164063 C 1159.449219 751.28125 1158.910156 747.136719 1155.480469 743.710938 C 1151.699219 739.746094 1141.429688 733.800781 1126.828125 733.800781 C 1119.800781 733.800781 1110.429688 734.339844 1101.421875 741.550781 C 1094.210938 747.496094 1089.53125 756.867188 1089.53125 772.363281 C 1089.53125 799.394531 1107.191406 819.757813 1134.21875 819.757813 C 1137.640625 819.757813 1141.96875 819.757813 1145.03125 818.316406 C 1147.011719 817.417969 1147.550781 815.792969 1147.550781 813.632813 L 1147.550781 801.738281 C 1147.550781 795.429688 1147.550781 790.566406 1147.371094 786.960938 C 1147.191406 782.636719 1146.109375 780.65625 1141.96875 779.753906 C 1140.890625 779.574219 1138.71875 779.394531 1136.921875 779.394531 C 1135.660156 779.394531 1134.941406 779.210938 1134.941406 778.3125 C 1134.941406 777.230469 1135.839844 777.050781 1137.640625 777.050781 C 1144.308594 777.050781 1152.421875 777.410156 1156.199219 777.410156 C 1160.171875 777.410156 1167.019531 777.050781 1171.160156 777.050781 C 1172.78125 777.050781 1173.679688 777.230469 1173.679688 778.3125 C 1173.679688 779.03125 1172.960938 779.394531 1172.058594 779.394531 C 1170.980469 779.394531 1170.078125 779.574219 1168.640625 779.753906 C 1165.21875 780.292969 1163.949219 782.457031 1163.769531 786.960938 C 1163.589844 790.746094 1163.589844 795.792969 1163.589844 802.097656 L 1163.589844 815.972656 L 1163.769531 815.972656 "/>
<path style=" stroke:none;fill-rule:nonzero;fill:rgb(7.099915%,33.299255%,54.899597%);fill-opacity:1;" d="M 1231.53125 785.160156 C 1232.070313 785.160156 1232.25 784.800781 1232.070313 784.4375 L 1220.539063 753.261719 C 1220.359375 752.722656 1220.359375 752.183594 1219.820313 752.183594 C 1219.460938 752.183594 1219.101563 752.902344 1219.101563 753.261719 L 1207.378906 784.257813 C 1207.199219 784.800781 1207.378906 785.160156 1207.921875 785.160156 Z M 1205.21875 791.46875 C 1204.5 791.46875 1204.320313 791.648438 1204.140625 792.546875 L 1197.109375 810.570313 C 1195.851563 813.632813 1195.128906 816.695313 1195.128906 818.316406 C 1195.128906 820.660156 1196.210938 822.28125 1200.179688 822.28125 L 1202.160156 822.28125 C 1203.78125 822.28125 1204.140625 822.460938 1204.140625 823.183594 C 1204.140625 824.265625 1203.421875 824.445313 1201.980469 824.445313 C 1197.828125 824.445313 1192.429688 824.085938 1188.460938 824.085938 C 1187.019531 824.085938 1179.988281 824.445313 1173.320313 824.445313 C 1171.699219 824.445313 1170.800781 824.265625 1170.800781 823.183594 C 1170.800781 822.460938 1171.339844 822.28125 1172.421875 822.28125 C 1173.5 822.28125 1175.308594 822.101563 1176.390625 822.101563 C 1182.328125 821.382813 1184.679688 817.054688 1187.199219 810.75 L 1219.28125 731.457031 C 1220.898438 727.855469 1221.621094 726.414063 1222.878906 726.414063 C 1224.140625 726.414063 1224.859375 727.492188 1226.121094 730.375 C 1229.191406 737.226563 1249.730469 788.761719 1257.839844 807.867188 C 1262.710938 819.21875 1266.488281 821.019531 1269.191406 821.5625 C 1271.179688 821.921875 1272.980469 822.101563 1274.601563 822.101563 C 1275.679688 822.101563 1276.21875 822.28125 1276.21875 823.003906 C 1276.21875 824.085938 1275.140625 824.265625 1270.269531 824.265625 C 1265.589844 824.265625 1256.398438 824.265625 1246.128906 824.085938 C 1243.78125 823.902344 1242.160156 823.902344 1242.160156 823.003906 C 1242.160156 822.28125 1242.699219 822.101563 1243.960938 821.921875 C 1244.871094 821.742188 1245.769531 820.480469 1245.050781 819.039063 L 1234.769531 792.367188 C 1234.589844 791.828125 1234.050781 791.46875 1233.511719 791.46875 L 1205.21875 791.46875 "/>
<path style=" stroke:none;fill-rule:nonzero;fill:rgb(7.099915%,33.299255%,54.899597%);fill-opacity:1;" d="M 1290.460938 765.515625 C 1290.460938 746.414063 1290.460938 742.8125 1290.28125 738.847656 C 1290.101563 734.519531 1289.019531 732.539063 1284.691406 731.636719 C 1283.609375 731.457031 1281.449219 731.277344 1279.648438 731.277344 C 1278.199219 731.277344 1277.480469 731.097656 1277.480469 730.195313 C 1277.480469 729.296875 1278.378906 729.113281 1280.191406 729.113281 C 1287.03125 729.113281 1295.140625 729.476563 1298.75 729.476563 C 1303.96875 729.476563 1311.359375 729.113281 1317.308594 729.113281 C 1333.351563 729.113281 1339.109375 734.339844 1341.101563 736.324219 C 1343.980469 739.027344 1347.578125 744.613281 1347.578125 751.28125 C 1347.578125 769.121094 1334.25 781.734375 1316.050781 781.734375 C 1315.511719 781.734375 1314.070313 781.734375 1313.351563 781.554688 C 1312.621094 781.375 1311.71875 781.375 1311.71875 780.472656 C 1311.71875 779.394531 1312.621094 779.03125 1315.328125 779.03125 C 1322.53125 779.03125 1332.449219 771.101563 1332.449219 758.308594 C 1332.449219 754.164063 1332.089844 745.695313 1324.878906 739.386719 C 1320.191406 735.242188 1314.96875 734.519531 1312.078125 734.519531 C 1310.101563 734.519531 1308.300781 734.703125 1307.039063 735.0625 C 1306.320313 735.242188 1305.960938 736.144531 1305.960938 737.402344 L 1305.960938 787.863281 C 1305.960938 799.394531 1305.960938 809.488281 1306.5 814.894531 C 1306.859375 818.496094 1307.761719 821.199219 1311.539063 821.742188 C 1313.351563 821.921875 1316.230469 822.28125 1318.03125 822.28125 C 1319.46875 822.28125 1320.011719 822.640625 1320.011719 823.183594 C 1320.011719 824.085938 1318.929688 824.445313 1317.671875 824.445313 C 1309.199219 824.445313 1301.089844 824.085938 1297.851563 824.085938 C 1294.960938 824.085938 1286.851563 824.445313 1281.628906 824.445313 C 1280.011719 824.445313 1279.101563 824.085938 1279.101563 823.183594 C 1279.101563 822.640625 1279.648438 822.28125 1281.089844 822.28125 C 1283.070313 822.28125 1284.511719 822.101563 1285.769531 821.742188 C 1288.300781 821.199219 1289.019531 818.496094 1289.558594 814.714844 C 1290.28125 809.488281 1290.28125 799.394531 1290.28125 787.863281 L 1290.28125 765.515625 L 1290.460938 765.515625 "/>
<path style=" stroke:none;fill-rule:nonzero;fill:rgb(7.099915%,33.299255%,54.899597%);fill-opacity:1;" d="M 1447.960938 779.03125 C 1447.960938 750.742188 1431.378906 733.257813 1410.480469 733.257813 C 1395.699219 733.257813 1378.941406 741.371094 1378.941406 772.726563 C 1378.941406 799.035156 1393.71875 819.757813 1418.21875 819.757813 C 1427.238281 819.757813 1447.960938 815.433594 1447.960938 779.03125 Z M 1361.101563 776.6875 C 1361.101563 755.066406 1375.519531 727.3125 1414.078125 727.3125 C 1445.980469 727.3125 1465.800781 745.515625 1465.800781 774.527344 C 1465.800781 803.359375 1445.261719 826.246094 1412.820313 826.246094 C 1376.058594 826.066406 1361.101563 799.035156 1361.101563 776.6875 "/>
<path style=" stroke:none;fill-rule:nonzero;fill:rgb(7.099915%,33.299255%,54.899597%);fill-opacity:1;" d="M 1508.511719 775.609375 C 1508.511719 777.050781 1508.691406 777.410156 1509.589844 777.953125 C 1512.289063 778.851563 1516.078125 779.210938 1519.320313 779.210938 C 1524.550781 779.210938 1526.171875 778.671875 1528.511719 777.050781 C 1532.289063 774.347656 1536.078125 768.582031 1536.078125 758.128906 C 1536.078125 740.289063 1524.011719 735.0625 1516.441406 735.0625 C 1513.191406 735.0625 1510.851563 735.242188 1509.589844 735.601563 C 1508.691406 735.78125 1508.511719 736.324219 1508.511719 737.40625 Z M 1493.371094 765.515625 C 1493.371094 746.414063 1493.371094 742.8125 1493.191406 738.847656 C 1492.828125 734.519531 1491.929688 732.539063 1487.601563 731.636719 C 1486.519531 731.457031 1484.359375 731.277344 1482.558594 731.277344 C 1481.121094 731.277344 1480.398438 731.097656 1480.398438 730.195313 C 1480.398438 729.296875 1481.300781 729.113281 1483.28125 729.113281 C 1490.128906 729.113281 1498.238281 729.476563 1500.761719 729.476563 C 1505.078125 729.476563 1514.820313 729.113281 1518.78125 729.113281 C 1526.890625 729.113281 1535.539063 729.835938 1542.390625 734.519531 C 1545.988281 736.863281 1551.039063 743.351563 1551.039063 751.820313 C 1551.039063 761.191406 1547.070313 769.660156 1534.101563 780.113281 C 1545.449219 794.167969 1554.460938 805.523438 1561.851563 813.273438 C 1569.058594 820.660156 1574.28125 821.382813 1576.269531 821.921875 C 1577.710938 822.101563 1578.789063 822.28125 1579.871094 822.28125 C 1580.949219 822.28125 1581.488281 822.640625 1581.488281 823.183594 C 1581.488281 824.265625 1580.589844 824.445313 1578.96875 824.445313 L 1566.710938 824.445313 C 1559.511719 824.445313 1556.441406 823.902344 1553.019531 822.101563 C 1547.429688 819.21875 1542.570313 813.269531 1535.359375 803.539063 C 1530.308594 796.511719 1524.359375 788.042969 1522.75 786.058594 C 1522.019531 785.339844 1521.300781 785.160156 1520.398438 785.160156 L 1509.230469 784.980469 C 1508.511719 784.980469 1508.148438 785.160156 1508.148438 785.878906 L 1508.148438 787.683594 C 1508.148438 799.394531 1508.148438 809.308594 1508.691406 814.714844 C 1509.050781 818.316406 1509.949219 821.199219 1513.730469 821.742188 C 1515.71875 821.921875 1518.421875 822.28125 1520.039063 822.28125 C 1521.121094 822.28125 1521.660156 822.640625 1521.660156 823.183594 C 1521.660156 824.082031 1520.761719 824.445313 1519.140625 824.445313 C 1511.75 824.445313 1502.199219 824.082031 1500.21875 824.082031 C 1497.878906 824.082031 1489.769531 824.445313 1484.539063 824.445313 C 1482.921875 824.445313 1482.019531 824.082031 1482.019531 823.183594 C 1482.019531 822.640625 1482.558594 822.28125 1484 822.28125 C 1485.980469 822.28125 1487.421875 822.101563 1488.511719 821.742188 C 1491.03125 821.199219 1491.75 818.496094 1492.289063 814.714844 C 1493.011719 809.488281 1493.011719 799.394531 1493.011719 787.863281 L 1493.011719 765.515625 L 1493.371094 765.515625 "/>
<path style=" stroke:none;fill-rule:nonzero;fill:rgb(7.099915%,33.299255%,54.899597%);fill-opacity:1;" d="M 1590.859375 765.515625 C 1590.859375 746.414063 1590.859375 742.8125 1590.679688 738.847656 C 1590.5 734.519531 1589.421875 732.539063 1585.101563 731.636719 C 1584.019531 731.457031 1581.851563 731.277344 1580.050781 731.277344 C 1578.609375 731.277344 1577.890625 731.097656 1577.890625 730.195313 C 1577.890625 729.296875 1578.789063 729.113281 1580.769531 729.113281 C 1584.191406 729.113281 1587.980469 729.296875 1591.039063 729.296875 C 1594.46875 729.476563 1597.351563 729.476563 1599.148438 729.476563 C 1603.300781 729.476563 1628.890625 729.476563 1631.230469 729.296875 C 1633.570313 729.113281 1635.730469 728.753906 1636.820313 728.574219 C 1637.539063 728.394531 1638.261719 728.035156 1638.800781 728.035156 C 1639.339844 728.035156 1639.519531 728.574219 1639.519531 729.113281 C 1639.519531 730.015625 1638.980469 731.457031 1638.441406 737.226563 C 1638.261719 738.484375 1638.078125 744.070313 1637.71875 745.515625 C 1637.539063 746.234375 1637.351563 746.957031 1636.449219 746.957031 C 1635.550781 746.957031 1635.371094 746.414063 1635.371094 745.152344 C 1635.371094 744.253906 1635.191406 742.089844 1634.648438 740.648438 C 1633.75 738.304688 1632.488281 736.863281 1626 736.144531 C 1623.839844 735.960938 1610.320313 735.601563 1607.800781 735.601563 C 1607.261719 735.601563 1606.898438 735.960938 1606.898438 736.863281 L 1606.898438 768.761719 C 1606.898438 769.660156 1607.078125 770.203125 1607.800781 770.203125 C 1610.691406 770.203125 1625.460938 770.203125 1628.351563 770.023438 C 1631.410156 769.660156 1633.390625 769.480469 1634.46875 768.039063 C 1635.371094 766.957031 1635.910156 766.417969 1636.449219 766.417969 C 1636.988281 766.417969 1637.351563 766.597656 1637.351563 767.5 C 1637.351563 768.21875 1636.628906 770.203125 1636.269531 776.691406 C 1636.101563 779.210938 1635.730469 784.257813 1635.730469 785.160156 C 1635.730469 786.242188 1635.730469 787.503906 1634.648438 787.503906 C 1633.75 787.503906 1633.390625 786.960938 1633.390625 786.421875 C 1633.210938 785.160156 1633.210938 783.539063 1632.851563 781.914063 C 1632.308594 779.394531 1630.511719 777.589844 1625.640625 777.050781 C 1623.121094 776.871094 1610.511719 776.691406 1607.441406 776.691406 C 1606.71875 776.691406 1606.71875 777.230469 1606.71875 777.953125 L 1606.71875 787.863281 C 1606.71875 792.1875 1606.539063 803.71875 1606.71875 807.503906 C 1606.898438 816.15625 1609.058594 818.136719 1622.21875 818.136719 C 1625.460938 818.136719 1630.871094 818.136719 1634.289063 816.695313 C 1637.71875 815.253906 1639.160156 812.550781 1640.058594 807.324219 C 1640.238281 805.882813 1640.601563 805.523438 1641.5 805.523438 C 1642.578125 805.523438 1642.578125 806.605469 1642.578125 807.867188 C 1642.578125 810.75 1641.5 819.398438 1640.960938 821.921875 C 1640.058594 825.164063 1638.980469 825.164063 1634.109375 825.164063 C 1624.558594 825.164063 1617.53125 824.984375 1611.949219 824.804688 C 1606.359375 824.625 1602.398438 824.445313 1598.609375 824.445313 C 1597.171875 824.445313 1594.289063 824.625 1591.398438 824.625 C 1588.519531 824.804688 1585.101563 824.804688 1582.570313 824.804688 C 1580.949219 824.804688 1580.050781 824.445313 1580.050781 823.542969 C 1580.050781 823.003906 1580.589844 822.640625 1582.03125 822.640625 C 1584.019531 822.640625 1585.460938 822.460938 1586.71875 822.101563 C 1589.238281 821.5625 1589.960938 818.859375 1590.5 815.074219 C 1591.21875 809.847656 1591.21875 799.757813 1591.21875 788.222656 L 1591.21875 765.515625 L 1590.859375 765.515625 "/>
<path style=" stroke:none;fill-rule:nonzero;fill:rgb(7.099915%,33.299255%,54.899597%);fill-opacity:1;" d="M 1716.289063 729.476563 C 1716.648438 727.3125 1717.371094 726.230469 1718.449219 726.230469 C 1719.53125 726.230469 1720.25 726.773438 1721.871094 730.195313 L 1756.828125 801.378906 L 1791.789063 729.296875 C 1792.691406 727.3125 1793.421875 726.230469 1794.679688 726.230469 C 1795.761719 726.230469 1796.660156 727.492188 1797.019531 730.195313 L 1808.730469 808.046875 C 1809.988281 815.976563 1811.261719 819.578125 1815.039063 820.839844 C 1818.820313 821.921875 1821.351563 822.101563 1822.96875 822.101563 C 1824.050781 822.101563 1824.949219 822.28125 1824.949219 823.003906 C 1824.949219 824.085938 1823.328125 824.445313 1821.710938 824.445313 C 1818.460938 824.445313 1800.800781 824.085938 1795.761719 823.722656 C 1792.871094 823.542969 1791.96875 823.183594 1791.96875 822.28125 C 1791.96875 821.5625 1792.511719 821.199219 1793.421875 820.839844 C 1794.140625 820.660156 1794.679688 819.039063 1794.140625 815.433594 L 1786.390625 759.929688 L 1785.851563 759.929688 L 1757.910156 817.234375 C 1755.03125 823.183594 1754.308594 824.265625 1753.230469 824.265625 C 1752.148438 824.265625 1750.710938 821.742188 1748.71875 817.957031 C 1745.660156 812.191406 1735.570313 792.910156 1733.949219 789.304688 C 1732.859375 786.601563 1725.121094 770.742188 1720.609375 761.371094 L 1720.070313 761.371094 L 1713.398438 811.648438 C 1713.21875 813.992188 1713.039063 815.613281 1713.039063 817.597656 C 1713.039063 819.941406 1714.660156 821.199219 1716.828125 821.5625 C 1719.171875 822.101563 1720.96875 822.28125 1722.230469 822.28125 C 1723.308594 822.28125 1724.21875 822.460938 1724.21875 823.183594 C 1724.21875 824.265625 1723.128906 824.625 1721.148438 824.625 C 1715.75 824.625 1709.980469 824.265625 1707.640625 824.265625 C 1705.289063 824.265625 1698.988281 824.625 1695.019531 824.625 C 1693.761719 824.625 1692.679688 824.445313 1692.679688 823.183594 C 1692.679688 822.644531 1693.398438 822.28125 1694.660156 822.28125 C 1695.738281 822.28125 1696.640625 822.28125 1698.449219 821.921875 C 1702.050781 821.199219 1703.128906 816.15625 1703.671875 812.011719 L 1716.289063 729.476563 "/>
<path style=" stroke:none;fill-rule:nonzero;fill:rgb(7.099915%,33.299255%,54.899597%);fill-opacity:1;" d="M 1878.46875 785.160156 C 1879.191406 785.160156 1879.191406 784.800781 1879.191406 784.4375 L 1867.660156 753.261719 C 1867.480469 752.722656 1867.300781 752.183594 1866.941406 752.183594 C 1866.578125 752.183594 1866.21875 752.902344 1866.21875 753.261719 L 1854.5 784.257813 C 1854.320313 784.800781 1854.5 785.160156 1855.039063 785.160156 Z M 1852.339844 791.46875 C 1851.621094 791.46875 1851.441406 791.648438 1851.078125 792.546875 L 1844.230469 810.570313 C 1842.96875 813.632813 1842.25 816.695313 1842.25 818.316406 C 1842.25 820.660156 1843.328125 822.28125 1847.300781 822.28125 L 1849.101563 822.28125 C 1850.71875 822.28125 1851.078125 822.460938 1851.078125 823.183594 C 1851.078125 824.265625 1850.359375 824.445313 1848.921875 824.445313 C 1844.949219 824.445313 1839.371094 824.085938 1835.398438 824.085938 C 1833.960938 824.085938 1826.929688 824.445313 1820.269531 824.445313 C 1818.640625 824.445313 1817.738281 824.265625 1817.738281 823.183594 C 1817.738281 822.460938 1818.28125 822.28125 1819.359375 822.28125 C 1820.621094 822.28125 1822.25 822.101563 1823.328125 822.101563 C 1829.269531 821.382813 1831.621094 817.054688 1834.140625 810.75 L 1866.21875 731.457031 C 1867.839844 727.855469 1868.558594 726.414063 1869.820313 726.414063 C 1870.898438 726.414063 1871.800781 727.492188 1873.070313 730.375 C 1876.128906 737.226563 1896.671875 788.761719 1904.78125 807.867188 C 1909.648438 819.21875 1913.429688 821.019531 1916.128906 821.5625 C 1918.121094 821.921875 1919.921875 822.101563 1921.539063 822.101563 C 1922.621094 822.101563 1923.160156 822.28125 1923.160156 823.003906 C 1923.160156 824.085938 1921.898438 824.265625 1917.21875 824.265625 C 1912.53125 824.265625 1903.339844 824.265625 1893.070313 824.085938 C 1890.730469 823.902344 1889.101563 823.902344 1889.101563 823.003906 C 1889.101563 822.28125 1889.640625 822.101563 1890.910156 821.921875 C 1891.808594 821.742188 1892.710938 820.480469 1891.988281 819.039063 L 1881.71875 792.367188 C 1881.53125 791.828125 1880.988281 791.46875 1880.449219 791.46875 L 1852.339844 791.46875 "/>
<path style=" stroke:none;fill-rule:nonzero;fill:rgb(7.099915%,33.299255%,54.899597%);fill-opacity:1;" d="M 1944.609375 807.144531 C 1944.789063 817.054688 1946.589844 820.300781 1949.109375 821.019531 C 1951.269531 821.742188 1953.621094 821.921875 1955.78125 821.921875 C 1957.21875 821.921875 1957.941406 822.101563 1957.941406 822.824219 C 1957.941406 823.902344 1956.859375 824.085938 1955.058594 824.085938 C 1946.769531 824.085938 1941.539063 823.722656 1939.199219 823.722656 C 1937.941406 823.722656 1931.988281 824.085938 1925.328125 824.085938 C 1923.699219 824.085938 1922.441406 823.902344 1922.441406 822.824219 C 1922.441406 822.101563 1923.160156 821.921875 1924.429688 821.921875 C 1926.050781 821.921875 1928.390625 821.742188 1930.191406 821.199219 C 1933.609375 820.117188 1933.980469 816.515625 1934.160156 805.523438 L 1935.421875 730.917969 C 1935.421875 728.394531 1935.78125 726.59375 1937.039063 726.59375 C 1938.480469 726.59375 1939.558594 728.214844 1941.898438 730.558594 C 1943.351563 732.179688 1962.988281 752.722656 1981.550781 771.101563 C 1990.199219 779.753906 2007.679688 797.773438 2009.839844 799.9375 L 2010.558594 799.9375 L 2009.300781 743.351563 C 2009.121094 735.601563 2008.039063 733.257813 2004.980469 732 C 2002.988281 731.277344 1999.929688 731.277344 1998.128906 731.277344 C 1996.511719 731.277344 1996.148438 730.917969 1996.148438 730.195313 C 1996.148438 729.113281 1997.589844 729.113281 1999.570313 729.113281 C 2006.238281 729.113281 2012.359375 729.476563 2015.070313 729.476563 C 2016.511719 729.476563 2021.378906 729.113281 2027.679688 729.113281 C 2029.300781 729.113281 2030.570313 729.296875 2030.570313 730.195313 C 2030.570313 730.917969 2029.851563 731.277344 2028.21875 731.277344 C 2026.960938 731.277344 2025.878906 731.277344 2024.441406 731.636719 C 2020.839844 732.71875 2019.75 735.242188 2019.570313 742.449219 L 2018.128906 822.101563 C 2018.128906 824.804688 2017.589844 826.066406 2016.511719 826.066406 C 2015.070313 826.066406 2013.449219 824.625 2012.191406 823.183594 C 2004.078125 815.613281 1987.679688 799.035156 1974.339844 786.058594 C 1960.28125 772.363281 1946.050781 756.6875 1943.890625 754.34375 L 1943.53125 754.34375 L 1944.609375 807.144531 "/>
<path style=" stroke:none;fill-rule:nonzero;fill:rgb(7.099915%,33.299255%,54.899597%);fill-opacity:1;" d="M 2090.761719 785.160156 C 2091.480469 785.160156 2091.480469 784.800781 2091.480469 784.4375 L 2079.941406 753.261719 C 2079.761719 752.722656 2079.761719 752.183594 2079.21875 752.183594 C 2078.859375 752.183594 2078.5 752.902344 2078.5 753.261719 L 2066.609375 784.257813 C 2066.429688 784.800781 2066.609375 785.160156 2067.148438 785.160156 Z M 2064.621094 791.46875 C 2063.898438 791.46875 2063.71875 791.648438 2063.539063 792.546875 L 2056.699219 810.570313 C 2055.441406 813.632813 2054.710938 816.695313 2054.710938 818.316406 C 2054.710938 820.660156 2055.789063 822.28125 2059.761719 822.28125 L 2061.738281 822.28125 C 2063.359375 822.28125 2063.71875 822.460938 2063.71875 823.183594 C 2063.71875 824.265625 2063 824.445313 2061.558594 824.445313 C 2057.421875 824.445313 2052.011719 824.085938 2048.050781 824.085938 C 2046.601563 824.085938 2039.578125 824.445313 2032.910156 824.445313 C 2031.289063 824.445313 2030.570313 824.265625 2030.570313 823.183594 C 2030.570313 822.460938 2031.109375 822.28125 2032.011719 822.28125 C 2033.269531 822.28125 2034.890625 822.101563 2035.96875 822.101563 C 2041.921875 821.382813 2044.261719 817.054688 2046.78125 810.75 L 2079.039063 731.457031 C 2080.480469 727.855469 2081.378906 726.414063 2082.648438 726.414063 C 2083.730469 726.414063 2084.628906 727.492188 2085.890625 730.375 C 2088.949219 737.226563 2109.5 788.761719 2117.609375 807.867188 C 2122.46875 819.21875 2126.261719 821.019531 2128.960938 821.5625 C 2130.941406 821.921875 2132.738281 822.101563 2134.359375 822.101563 C 2135.449219 822.101563 2135.988281 822.28125 2135.988281 823.003906 C 2135.988281 824.085938 2134.730469 824.265625 2130.039063 824.265625 C 2125.53125 824.265625 2116.160156 824.265625 2105.890625 824.085938 C 2103.550781 823.902344 2102.109375 823.902344 2102.109375 823.003906 C 2102.109375 822.28125 2102.648438 822.101563 2103.910156 821.921875 C 2104.808594 821.742188 2105.710938 820.480469 2104.988281 819.039063 L 2094.71875 792.367188 C 2094.359375 791.828125 2094 791.46875 2093.460938 791.46875 L 2064.621094 791.46875 "/>
<path style=" stroke:none;fill-rule:nonzero;fill:rgb(7.099915%,33.299255%,54.899597%);fill-opacity:1;" d="M 2227.710938 815.972656 C 2227.710938 819.398438 2227.53125 819.578125 2226.089844 820.480469 C 2217.800781 824.804688 2205.191406 826.246094 2195.101563 826.246094 C 2163.738281 826.246094 2135.808594 811.648438 2135.808594 776.871094 C 2135.808594 756.6875 2146.441406 742.628906 2158.148438 735.601563 C 2170.410156 728.394531 2181.941406 727.492188 2192.75 727.492188 C 2201.578125 727.492188 2212.761719 728.933594 2215.460938 729.476563 C 2218.160156 730.015625 2222.671875 730.738281 2225.550781 730.917969 C 2227.171875 731.097656 2227.351563 731.457031 2227.351563 732.359375 C 2227.351563 733.800781 2226.449219 737.226563 2226.449219 753.082031 C 2226.449219 755.066406 2226.089844 755.785156 2225.011719 755.785156 C 2224.109375 755.785156 2223.75 755.066406 2223.75 754.164063 C 2223.390625 751.28125 2222.671875 747.136719 2219.421875 743.710938 C 2215.640625 739.746094 2205.359375 733.800781 2190.769531 733.800781 C 2183.738281 733.800781 2174.371094 734.339844 2165.359375 741.550781 C 2158.148438 747.496094 2153.648438 756.867188 2153.648438 772.363281 C 2153.648438 799.394531 2171.128906 819.757813 2198.160156 819.757813 C 2201.578125 819.757813 2205.910156 819.757813 2208.96875 818.316406 C 2210.949219 817.417969 2211.308594 815.792969 2211.308594 813.632813 L 2211.308594 801.738281 C 2211.308594 795.429688 2211.308594 790.566406 2211.128906 786.960938 C 2210.949219 782.636719 2209.871094 780.65625 2205.550781 779.753906 C 2204.460938 779.574219 2202.300781 779.394531 2200.5 779.394531 C 2199.421875 779.394531 2198.519531 779.210938 2198.519531 778.3125 C 2198.519531 777.230469 2199.421875 777.050781 2201.21875 777.050781 C 2207.890625 777.050781 2216 777.410156 2219.78125 777.410156 C 2223.75 777.410156 2230.601563 777.050781 2234.738281 777.050781 C 2236.359375 777.050781 2237.261719 777.230469 2237.261719 778.3125 C 2237.261719 779.03125 2236.539063 779.394531 2235.640625 779.394531 C 2234.558594 779.394531 2233.660156 779.574219 2232.21875 779.753906 C 2228.789063 780.292969 2227.53125 782.457031 2227.351563 786.960938 C 2227.171875 790.746094 2227.171875 795.792969 2227.171875 802.097656 L 2227.171875 815.972656 L 2227.710938 815.972656 "/>
<path style=" stroke:none;fill-rule:nonzero;fill:rgb(7.099915%,33.299255%,54.899597%);fill-opacity:1;" d="M 2264.109375 765.515625 C 2264.109375 746.414063 2264.109375 742.8125 2263.929688 738.847656 C 2263.75 734.519531 2262.671875 732.539063 2258.351563 731.636719 C 2257.269531 731.457031 2255.101563 731.277344 2253.300781 731.277344 C 2251.859375 731.277344 2251.140625 731.097656 2251.140625 730.195313 C 2251.140625 729.296875 2252.039063 729.113281 2254.019531 729.113281 C 2257.441406 729.113281 2261.230469 729.296875 2264.289063 729.296875 C 2267.71875 729.476563 2270.601563 729.476563 2272.398438 729.476563 C 2276.550781 729.476563 2301.960938 729.476563 2304.480469 729.296875 C 2307 729.113281 2308.988281 728.753906 2310.070313 728.574219 C 2310.609375 728.394531 2311.511719 728.035156 2312.050781 728.035156 C 2312.769531 728.035156 2312.769531 728.574219 2312.769531 729.113281 C 2312.769531 730.015625 2312.050781 731.457031 2311.691406 737.226563 C 2311.511719 738.484375 2311.328125 744.070313 2310.96875 745.515625 C 2310.789063 746.234375 2310.609375 746.957031 2309.699219 746.957031 C 2308.800781 746.957031 2308.621094 746.414063 2308.621094 745.152344 C 2308.621094 744.253906 2308.441406 742.089844 2307.898438 740.648438 C 2307 738.304688 2305.738281 736.863281 2299.25 736.144531 C 2297.089844 735.960938 2283.578125 735.601563 2281.050781 735.601563 C 2280.511719 735.601563 2280.148438 735.960938 2280.148438 736.863281 L 2280.148438 768.761719 C 2280.148438 769.660156 2280.328125 770.203125 2281.050781 770.203125 C 2283.941406 770.203125 2298.710938 770.203125 2301.601563 770.023438 C 2304.660156 769.660156 2306.640625 769.480469 2307.71875 768.039063 C 2308.621094 766.957031 2309.171875 766.417969 2309.699219 766.417969 C 2310.25 766.417969 2310.609375 766.597656 2310.609375 767.5 C 2310.609375 768.21875 2309.890625 770.203125 2309.519531 776.691406 C 2309.351563 779.210938 2308.988281 784.257813 2308.988281 785.160156 C 2308.988281 786.242188 2308.988281 787.503906 2307.898438 787.503906 C 2307 787.503906 2306.820313 786.960938 2306.820313 786.421875 C 2306.640625 785.160156 2306.640625 783.539063 2306.28125 781.914063 C 2305.738281 779.394531 2303.941406 777.589844 2299.070313 777.050781 C 2296.730469 776.871094 2283.941406 776.691406 2280.871094 776.691406 C 2280.328125 776.691406 2280.148438 777.230469 2280.148438 777.953125 L 2280.148438 787.863281 C 2280.148438 792.1875 2279.96875 803.71875 2280.148438 807.503906 C 2280.511719 816.15625 2282.488281 818.136719 2295.46875 818.136719 C 2298.890625 818.136719 2304.121094 818.136719 2307.539063 816.695313 C 2310.789063 815.253906 2312.410156 812.550781 2313.308594 807.324219 C 2313.671875 805.882813 2313.851563 805.523438 2314.75 805.523438 C 2315.828125 805.523438 2315.828125 806.605469 2315.828125 807.867188 C 2315.828125 810.75 2314.75 819.398438 2314.210938 821.921875 C 2313.308594 825.164063 2312.230469 825.164063 2307.359375 825.164063 C 2297.808594 825.164063 2290.601563 824.984375 2285.199219 824.804688 C 2279.789063 824.625 2275.828125 824.445313 2271.859375 824.445313 C 2270.421875 824.445313 2267.539063 824.625 2264.46875 824.625 C 2261.589844 824.804688 2258.171875 824.804688 2255.640625 824.804688 C 2254.019531 824.804688 2253.121094 824.445313 2253.121094 823.542969 C 2253.121094 823.003906 2253.660156 822.640625 2255.101563 822.640625 C 2257.089844 822.640625 2258.53125 822.460938 2259.789063 822.101563 C 2262.308594 821.5625 2263.03125 818.859375 2263.570313 815.074219 C 2264.289063 809.847656 2264.289063 799.757813 2264.289063 788.222656 L 2264.289063 765.515625 L 2264.109375 765.515625 "/>
<path style=" stroke:none;fill-rule:nonzero;fill:rgb(7.099915%,33.299255%,54.899597%);fill-opacity:1;" d="M 2350.429688 729.476563 C 2350.789063 727.3125 2351.691406 726.230469 2352.601563 726.230469 C 2353.679688 726.230469 2354.398438 726.773438 2356.019531 730.195313 L 2390.980469 801.378906 L 2425.941406 729.296875 C 2426.839844 727.3125 2427.558594 726.230469 2428.820313 726.230469 C 2430.078125 726.230469 2430.800781 727.492188 2431.160156 730.195313 L 2442.878906 808.046875 C 2444.140625 815.976563 2445.398438 819.578125 2449.191406 820.839844 C 2452.96875 821.921875 2455.488281 822.101563 2457.109375 822.101563 C 2458.191406 822.101563 2459.101563 822.28125 2459.101563 823.003906 C 2459.101563 824.085938 2457.46875 824.445313 2455.851563 824.445313 C 2452.609375 824.445313 2434.949219 824.085938 2429.71875 823.722656 C 2426.839844 823.542969 2425.941406 823.183594 2425.941406 822.28125 C 2425.941406 821.5625 2426.480469 821.199219 2427.378906 820.839844 C 2428.101563 820.660156 2428.640625 819.039063 2428.101563 815.433594 L 2420.351563 759.929688 L 2419.808594 759.929688 L 2391.878906 817.234375 C 2388.820313 823.183594 2388.28125 824.265625 2387.011719 824.265625 C 2385.929688 824.265625 2384.671875 821.742188 2382.511719 817.957031 C 2379.441406 812.191406 2369.351563 792.910156 2367.730469 789.304688 C 2366.648438 786.601563 2358.898438 770.742188 2354.398438 761.371094 L 2353.859375 761.371094 L 2347.191406 811.648438 C 2346.828125 813.992188 2346.828125 815.613281 2346.828125 817.597656 C 2346.828125 819.941406 2348.449219 821.199219 2350.609375 821.5625 C 2352.949219 822.101563 2354.761719 822.28125 2356.019531 822.28125 C 2357.101563 822.28125 2358 822.460938 2358 823.183594 C 2358 824.265625 2356.738281 824.625 2354.941406 824.625 C 2349.53125 824.625 2343.769531 824.265625 2341.421875 824.265625 C 2338.898438 824.265625 2332.769531 824.625 2328.628906 824.625 C 2327.359375 824.625 2326.28125 824.445313 2326.28125 823.183594 C 2326.28125 822.644531 2327.011719 822.28125 2328.269531 822.28125 C 2329.351563 822.28125 2330.25 822.28125 2332.050781 821.921875 C 2335.660156 821.199219 2336.738281 816.15625 2337.28125 812.011719 L 2350.429688 729.476563 "/>
<path style=" stroke:none;fill-rule:nonzero;fill:rgb(7.099915%,33.299255%,54.899597%);fill-opacity:1;" d="M 2480.179688 765.515625 C 2480.179688 746.414063 2480.179688 742.8125 2479.820313 738.847656 C 2479.640625 734.519531 2478.558594 732.539063 2474.421875 731.636719 C 2473.328125 731.457031 2471.171875 731.277344 2469.371094 731.277344 C 2467.929688 731.277344 2467.210938 731.097656 2467.210938 730.195313 C 2467.210938 729.296875 2468.109375 729.113281 2470.089844 729.113281 C 2473.511719 729.113281 2477.300781 729.296875 2480.539063 729.296875 C 2483.78125 729.476563 2486.851563 729.476563 2488.648438 729.476563 C 2492.800781 729.476563 2518.199219 729.476563 2520.730469 729.296875 C 2523.070313 729.113281 2525.230469 728.753906 2526.308594 728.574219 C 2526.851563 728.394531 2527.761719 728.035156 2528.300781 728.035156 C 2528.839844 728.035156 2529.019531 728.574219 2529.019531 729.113281 C 2529.019531 730.015625 2528.300781 731.457031 2527.941406 737.226563 C 2527.761719 738.484375 2527.578125 744.070313 2527.390625 745.515625 C 2527.210938 746.234375 2527.03125 746.957031 2526.128906 746.957031 C 2525.230469 746.957031 2524.871094 746.414063 2524.871094 745.152344 C 2524.871094 744.253906 2524.691406 742.089844 2524.148438 740.648438 C 2523.25 738.304688 2521.988281 736.863281 2515.5 736.144531 C 2513.339844 735.960938 2499.820313 735.601563 2497.300781 735.601563 C 2496.578125 735.601563 2496.398438 735.960938 2496.398438 736.863281 L 2496.398438 768.761719 C 2496.398438 769.660156 2496.578125 770.203125 2497.300781 770.203125 C 2500.191406 770.203125 2514.960938 770.203125 2517.839844 770.023438 C 2520.910156 769.660156 2522.890625 769.480469 2523.96875 768.039063 C 2524.871094 766.957031 2525.410156 766.417969 2525.949219 766.417969 C 2526.488281 766.417969 2526.851563 766.597656 2526.851563 767.5 C 2526.851563 768.21875 2526.308594 770.203125 2525.769531 776.691406 C 2525.589844 779.210938 2525.230469 784.257813 2525.230469 785.160156 C 2525.230469 786.242188 2525.230469 787.503906 2524.148438 787.503906 C 2523.25 787.503906 2523.070313 786.960938 2523.070313 786.421875 C 2522.890625 785.160156 2522.890625 783.539063 2522.53125 781.914063 C 2521.808594 779.394531 2520.011719 777.589844 2515.320313 777.050781 C 2512.980469 776.871094 2500.191406 776.691406 2497.121094 776.691406 C 2496.398438 776.691406 2496.398438 777.230469 2496.398438 777.953125 L 2496.398438 787.863281 C 2496.398438 792.1875 2496.21875 803.71875 2496.398438 807.503906 C 2496.578125 816.15625 2498.738281 818.136719 2511.71875 818.136719 C 2514.960938 818.136719 2520.371094 818.136719 2523.789063 816.695313 C 2527.21875 815.253906 2528.660156 812.550781 2529.558594 807.324219 C 2529.738281 805.882813 2530.101563 805.523438 2531 805.523438 C 2532.078125 805.523438 2532.078125 806.605469 2532.078125 807.867188 C 2532.078125 810.75 2531 819.398438 2530.460938 821.921875 C 2529.558594 825.164063 2528.480469 825.164063 2523.429688 825.164063 C 2513.878906 825.164063 2506.851563 824.984375 2501.269531 824.804688 C 2495.679688 824.625 2491.710938 824.445313 2487.929688 824.445313 C 2486.488281 824.445313 2483.789063 824.625 2480.71875 824.625 C 2477.839844 824.804688 2474.421875 824.804688 2471.890625 824.804688 C 2470.269531 824.804688 2469.371094 824.445313 2469.371094 823.542969 C 2469.371094 823.003906 2469.910156 822.640625 2471.351563 822.640625 C 2473.328125 822.640625 2474.769531 822.460938 2476.039063 822.101563 C 2478.558594 821.5625 2479.28125 818.859375 2479.820313 815.074219 C 2480.539063 809.847656 2480.539063 799.757813 2480.539063 788.222656 L 2480.539063 765.515625 L 2480.179688 765.515625 "/>
<path style=" stroke:none;fill-rule:nonzero;fill:rgb(7.099915%,33.299255%,54.899597%);fill-opacity:1;" d="M 2569.019531 807.144531 C 2569.378906 817.054688 2571.011719 820.300781 2573.53125 821.019531 C 2575.691406 821.742188 2578.210938 821.921875 2580.191406 821.921875 C 2581.640625 821.921875 2582.359375 822.101563 2582.359375 822.824219 C 2582.359375 823.902344 2581.101563 824.085938 2579.289063 824.085938 C 2571.011719 824.085938 2565.78125 823.722656 2563.441406 823.722656 C 2562.351563 823.722656 2556.230469 824.085938 2549.558594 824.085938 C 2547.941406 824.085938 2546.679688 823.902344 2546.679688 822.824219 C 2546.679688 822.101563 2547.398438 821.921875 2548.660156 821.921875 C 2550.28125 821.921875 2552.621094 821.742188 2554.429688 821.199219 C 2557.671875 820.117188 2558.210938 816.515625 2558.390625 805.523438 L 2559.648438 730.917969 C 2559.648438 728.394531 2560.011719 726.59375 2561.269531 726.59375 C 2562.71875 726.59375 2563.800781 728.214844 2565.960938 730.558594 C 2567.578125 732.179688 2587.039063 752.722656 2605.78125 771.101563 C 2614.429688 779.753906 2631.730469 797.773438 2633.898438 799.9375 L 2634.621094 799.9375 L 2633.359375 743.351563 C 2633.179688 735.601563 2632.089844 733.257813 2629.03125 732 C 2627.050781 731.277344 2623.988281 731.277344 2622.179688 731.277344 C 2620.558594 731.277344 2620.199219 730.917969 2620.199219 730.195313 C 2620.199219 729.113281 2621.640625 729.113281 2623.621094 729.113281 C 2630.289063 729.113281 2636.421875 729.476563 2639.121094 729.476563 C 2640.558594 729.476563 2645.429688 729.113281 2651.558594 729.113281 C 2653.179688 729.113281 2654.441406 729.296875 2654.441406 730.195313 C 2654.441406 730.917969 2653.71875 731.277344 2652.101563 731.277344 C 2650.839844 731.277344 2649.761719 731.277344 2648.308594 731.636719 C 2644.710938 732.71875 2643.628906 735.242188 2643.449219 742.449219 L 2642.011719 822.101563 C 2642.011719 824.804688 2641.460938 826.066406 2640.378906 826.066406 C 2638.941406 826.066406 2637.5 824.625 2636.058594 823.183594 C 2627.949219 815.613281 2611.550781 799.035156 2598.210938 786.058594 C 2584.160156 772.363281 2570.101563 756.6875 2567.761719 754.34375 L 2567.398438 754.34375 L 2569.019531 807.144531 "/>
<g clip-path="url(#clip2)" clip-rule="nonzero">
<path style=" stroke:none;fill-rule:nonzero;fill:rgb(7.099915%,33.299255%,54.899597%);fill-opacity:1;" d="M 2700.941406 736.144531 L 2681.828125 736.683594 C 2674.441406 736.863281 2671.378906 737.585938 2669.398438 740.289063 C 2668.140625 742.089844 2667.601563 743.710938 2667.238281 744.613281 C 2667.050781 745.695313 2666.519531 746.234375 2665.789063 746.234375 C 2664.890625 746.234375 2664.53125 745.515625 2664.53125 744.253906 C 2664.53125 742.269531 2666.871094 730.738281 2667.230469 729.65625 C 2667.601563 728.035156 2667.960938 727.3125 2668.859375 727.3125 C 2669.941406 727.3125 2671.199219 728.574219 2674.441406 728.753906 C 2678.230469 729.113281 2683.089844 729.296875 2687.238281 729.296875 L 2738.058594 729.296875 C 2742.199219 729.296875 2745.089844 728.933594 2746.890625 728.753906 C 2748.871094 728.394531 2749.769531 728.214844 2750.308594 728.214844 C 2751.210938 728.214844 2751.390625 728.933594 2751.390625 730.917969 C 2751.390625 733.621094 2751.03125 742.269531 2751.03125 745.515625 C 2750.851563 746.773438 2750.671875 747.496094 2749.949219 747.496094 C 2748.871094 747.496094 2748.691406 746.773438 2748.511719 744.972656 L 2748.328125 743.53125 C 2748.148438 740.289063 2744.539063 736.683594 2733.191406 736.503906 L 2716.96875 736.144531 L 2716.96875 787.863281 C 2716.96875 799.394531 2716.96875 809.488281 2717.691406 814.894531 C 2718.050781 818.496094 2718.949219 821.199219 2722.738281 821.742188 C 2724.539063 821.921875 2727.429688 822.28125 2729.230469 822.28125 C 2730.671875 822.28125 2731.210938 822.640625 2731.210938 823.183594 C 2731.210938 824.085938 2730.308594 824.445313 2728.691406 824.445313 C 2720.21875 824.445313 2712.109375 824.085938 2708.679688 824.085938 C 2705.621094 824.085938 2697.511719 824.445313 2692.460938 824.445313 C 2690.839844 824.445313 2689.941406 824.085938 2689.941406 823.183594 C 2689.941406 822.640625 2690.480469 822.28125 2691.921875 822.28125 C 2693.910156 822.28125 2695.351563 822.101563 2696.609375 821.742188 C 2699.128906 821.199219 2700.03125 818.496094 2700.390625 814.714844 C 2701.109375 809.488281 2701.109375 799.394531 2701.109375 787.863281 L 2701.109375 736.144531 L 2700.941406 736.144531 "/>
</g>
<path style=" stroke:none;fill-rule:nonzero;fill:rgb(7.099915%,33.299255%,54.899597%);fill-opacity:1;" d="M 825.164063 915.988281 C 825.164063 896.886719 825.164063 893.285156 824.804688 889.320313 C 824.625 884.992188 823.542969 883.011719 819.21875 882.109375 C 818.136719 881.75 815.976563 881.75 814.171875 881.75 C 812.730469 881.75 812.011719 881.570313 812.011719 880.667969 C 812.011719 879.769531 812.910156 879.585938 814.894531 879.585938 C 821.742188 879.585938 829.851563 879.949219 833.636719 879.949219 C 836.699219 879.949219 844.808594 879.585938 849.3125 879.585938 C 851.113281 879.585938 852.195313 879.769531 852.195313 880.667969 C 852.195313 881.570313 851.476563 881.75 850.214844 881.75 C 848.773438 881.75 848.050781 881.929688 846.429688 882.109375 C 843.007813 882.652344 841.925781 884.8125 841.746094 889.320313 C 841.382813 893.285156 841.382813 896.886719 841.382813 915.988281 L 841.382813 933.648438 C 841.382813 951.851563 845.167969 959.601563 851.296875 964.644531 C 857.0625 969.332031 863.007813 969.871094 867.335938 969.871094 C 872.921875 969.871094 879.949219 968.070313 884.992188 963.023438 C 892.019531 955.996094 892.382813 944.820313 892.382813 931.667969 L 892.382813 915.988281 C 892.382813 896.886719 892.382813 893.285156 892.019531 889.320313 C 891.84375 884.992188 890.761719 883.011719 886.4375 882.109375 C 885.355469 881.75 883.191406 881.75 881.75 881.75 C 880.308594 881.75 879.585938 881.570313 879.585938 880.667969 C 879.585938 879.769531 880.488281 879.585938 882.289063 879.585938 C 888.777344 879.585938 896.886719 879.949219 897.066406 879.949219 C 898.691406 879.949219 906.617188 879.585938 911.664063 879.585938 C 913.46875 879.585938 914.367188 879.769531 914.367188 880.667969 C 914.367188 881.570313 913.644531 881.75 912.023438 881.75 C 910.582031 881.75 909.863281 881.929688 908.238281 882.109375 C 904.816406 882.652344 903.734375 884.8125 903.554688 889.320313 C 903.375 893.285156 903.375 896.886719 903.375 915.988281 L 903.375 929.503906 C 903.375 943.5625 901.933594 958.335938 891.121094 967.527344 C 881.929688 975.277344 872.738281 976.539063 864.449219 976.539063 C 857.601563 976.539063 845.347656 976.179688 835.976563 967.890625 C 829.488281 962.121094 824.625 952.75 824.625 934.550781 L 824.625 915.988281 L 825.164063 915.988281 "/>
<path style=" stroke:none;fill-rule:nonzero;fill:rgb(7.099915%,33.299255%,54.899597%);fill-opacity:1;" d="M 947.707031 957.617188 C 947.886719 967.527344 949.6875 970.773438 952.210938 971.671875 C 954.375 972.394531 956.894531 972.574219 958.878906 972.574219 C 960.320313 972.574219 961.039063 972.933594 961.039063 973.65625 C 961.039063 974.734375 959.777344 974.917969 957.976563 974.917969 C 949.6875 974.917969 944.460938 974.558594 942.117188 974.558594 C 940.859375 974.558594 934.910156 974.917969 928.242188 974.917969 C 926.621094 974.917969 925.359375 974.734375 925.359375 973.65625 C 925.359375 972.933594 926.078125 972.574219 927.34375 972.574219 C 928.964844 972.574219 931.308594 972.394531 933.109375 972.035156 C 936.53125 970.953125 936.894531 967.347656 937.074219 956.355469 L 938.15625 881.75 C 938.15625 879.226563 938.515625 877.425781 939.777344 877.425781 C 941.21875 877.425781 942.300781 879.046875 944.460938 881.390625 C 946.085938 883.011719 965.546875 903.554688 984.105469 921.9375 C 992.757813 930.585938 1010.058594 948.605469 1012.21875 950.589844 L 1012.941406 950.589844 L 1011.679688 894.003906 C 1011.5 886.253906 1010.421875 883.914063 1007.351563 882.652344 C 1005.371094 881.929688 1002.308594 881.929688 1000.511719 881.929688 C 999.0625 881.929688 998.523438 881.570313 998.523438 880.847656 C 998.523438 879.769531 999.964844 879.769531 1001.769531 879.769531 C 1008.441406 879.769531 1014.558594 880.128906 1017.269531 880.128906 C 1018.710938 880.128906 1023.570313 879.769531 1029.878906 879.769531 C 1031.5 879.769531 1032.761719 879.949219 1032.761719 880.847656 C 1032.761719 881.570313 1032.039063 881.929688 1030.421875 881.929688 C 1029.160156 881.929688 1028.078125 881.929688 1026.640625 882.289063 C 1023.03125 883.371094 1021.949219 885.894531 1021.949219 892.921875 L 1020.511719 972.574219 C 1020.511719 975.277344 1019.96875 976.539063 1018.890625 976.539063 C 1017.449219 976.539063 1016 975.097656 1014.558594 973.835938 C 1006.449219 966.265625 990.054688 949.6875 976.71875 936.714844 C 962.84375 923.015625 948.425781 907.339844 946.265625 904.996094 L 945.902344 904.996094 L 947.707031 957.617188 "/>
<path style=" stroke:none;fill-rule:nonzero;fill:rgb(7.099915%,33.299255%,54.899597%);fill-opacity:1;" d="M 1062.679688 915.988281 C 1062.679688 896.886719 1062.679688 893.285156 1062.5 889.320313 C 1062.320313 884.992188 1060.878906 882.832031 1058.171875 882.289063 C 1056.730469 881.929688 1055.109375 881.75 1053.488281 881.75 C 1052.230469 881.75 1051.5 881.570313 1051.5 880.488281 C 1051.5 879.769531 1052.589844 879.40625 1054.570313 879.40625 C 1059.429688 879.40625 1067.539063 879.769531 1071.148438 879.769531 C 1074.390625 879.769531 1081.960938 879.40625 1086.820313 879.40625 C 1088.449219 879.40625 1089.53125 879.585938 1089.53125 880.488281 C 1089.53125 881.570313 1088.808594 881.75 1087.550781 881.75 C 1086.28125 881.75 1085.199219 881.929688 1083.761719 882.109375 C 1080.339844 882.652344 1079.261719 884.8125 1079.078125 889.320313 C 1078.71875 893.285156 1078.71875 896.886719 1078.71875 915.988281 L 1078.71875 938.15625 C 1078.71875 950.410156 1078.71875 960.320313 1079.261719 965.726563 C 1079.621094 969.148438 1080.519531 971.3125 1084.480469 971.851563 C 1086.28125 972.035156 1089.171875 972.394531 1090.96875 972.394531 C 1092.410156 972.394531 1092.949219 972.753906 1092.949219 973.476563 C 1092.949219 974.375 1091.871094 974.738281 1090.609375 974.738281 C 1082.140625 974.738281 1074.03125 974.375 1070.609375 974.375 C 1067.71875 974.375 1059.609375 974.738281 1054.570313 974.738281 C 1052.949219 974.738281 1052.050781 974.375 1052.050781 973.476563 C 1052.050781 972.753906 1052.589844 972.394531 1054.03125 972.394531 C 1056.011719 972.394531 1057.449219 972.214844 1058.710938 971.851563 C 1061.238281 971.3125 1061.960938 969.148438 1062.5 965.546875 C 1063.21875 960.320313 1063.21875 950.230469 1063.21875 937.976563 L 1063.21875 915.988281 L 1062.679688 915.988281 "/>
<path style=" stroke:none;fill-rule:nonzero;fill:rgb(7.099915%,33.299255%,54.899597%);fill-opacity:1;" d="M 1109.351563 891.84375 C 1106.46875 884.992188 1104.300781 883.550781 1099.621094 882.289063 C 1097.640625 881.75 1095.660156 881.75 1094.570313 881.75 C 1093.488281 881.75 1092.949219 881.390625 1092.949219 880.667969 C 1092.949219 879.585938 1094.390625 879.585938 1096.378906 879.585938 C 1103.21875 879.585938 1110.429688 879.949219 1114.941406 879.949219 C 1118.179688 879.949219 1124.308594 879.585938 1130.800781 879.585938 C 1132.421875 879.585938 1133.679688 879.769531 1133.679688 880.667969 C 1133.679688 881.570313 1132.960938 881.75 1131.699219 881.75 C 1129.710938 881.75 1127.730469 881.929688 1126.648438 882.652344 C 1125.75 883.191406 1125.390625 884.09375 1125.390625 885.355469 C 1125.390625 886.976563 1126.46875 890.578125 1128.449219 895.085938 L 1150.441406 952.390625 L 1150.980469 952.390625 C 1156.570313 938.515625 1173.140625 897.96875 1176.210938 889.679688 C 1176.929688 888.058594 1177.46875 886.074219 1177.46875 884.992188 C 1177.46875 883.914063 1176.929688 883.011719 1175.851563 882.652344 C 1174.230469 882.109375 1172.421875 881.929688 1170.800781 881.929688 C 1169.71875 881.929688 1168.640625 881.75 1168.640625 880.847656 C 1168.640625 879.769531 1169.71875 879.585938 1172.238281 879.585938 C 1178.730469 879.585938 1184.140625 879.949219 1185.761719 879.949219 C 1187.921875 879.949219 1193.871094 879.585938 1197.828125 879.585938 C 1199.449219 879.585938 1200.539063 879.769531 1200.539063 880.667969 C 1200.539063 881.570313 1199.808594 881.75 1198.550781 881.75 C 1197.289063 881.75 1194.589844 881.75 1192.25 883.371094 C 1190.621094 884.453125 1188.640625 886.617188 1185.21875 894.726563 C 1180.171875 906.617188 1176.75 913.464844 1169.898438 928.964844 C 1161.609375 947.34375 1155.660156 961.042969 1152.78125 967.347656 C 1149.359375 974.738281 1148.640625 976.71875 1146.828125 976.71875 C 1145.210938 976.71875 1144.308594 974.917969 1141.96875 968.96875 L 1109.351563 891.84375 "/>
<path style=" stroke:none;fill-rule:nonzero;fill:rgb(7.099915%,33.299255%,54.899597%);fill-opacity:1;" d="M 1214.589844 915.988281 C 1214.589844 896.886719 1214.589844 893.285156 1214.410156 889.320313 C 1214.230469 884.992188 1213.148438 883.011719 1208.820313 882.109375 C 1207.738281 881.75 1205.578125 881.75 1203.78125 881.75 C 1202.339844 881.75 1201.621094 881.570313 1201.621094 880.667969 C 1201.621094 879.769531 1202.519531 879.585938 1204.5 879.585938 C 1207.921875 879.585938 1211.710938 879.769531 1214.769531 879.769531 C 1218.199219 879.949219 1221.078125 879.949219 1222.878906 879.949219 C 1227.03125 879.949219 1252.429688 879.949219 1254.960938 879.769531 C 1257.300781 879.585938 1259.460938 879.226563 1260.539063 879.046875 C 1261.269531 878.867188 1261.988281 878.507813 1262.53125 878.507813 C 1263.070313 878.507813 1263.25 879.046875 1263.25 879.585938 C 1263.25 880.488281 1262.710938 881.929688 1262.171875 887.875 C 1261.988281 889.136719 1261.808594 894.726563 1261.441406 896.167969 C 1261.269531 896.707031 1261.089844 897.429688 1260.179688 897.429688 C 1259.28125 897.429688 1258.921875 896.886719 1258.921875 895.625 C 1258.921875 894.726563 1258.738281 892.5625 1258.199219 891.121094 C 1257.300781 888.777344 1256.039063 887.335938 1249.550781 886.617188 C 1247.390625 886.433594 1233.871094 886.074219 1231.351563 886.074219 C 1230.808594 886.074219 1230.449219 886.433594 1230.449219 887.335938 L 1230.449219 919.234375 C 1230.449219 920.132813 1230.628906 920.675781 1231.351563 920.675781 C 1234.230469 920.675781 1249.011719 920.675781 1251.890625 920.492188 C 1254.960938 920.316406 1256.941406 919.953125 1258.019531 918.691406 C 1258.921875 917.609375 1259.460938 917.070313 1260 917.070313 C 1260.539063 917.070313 1260.898438 917.25 1260.898438 918.152344 C 1260.898438 918.871094 1260.359375 920.855469 1259.820313 927.34375 C 1259.640625 929.863281 1259.28125 934.910156 1259.28125 935.8125 C 1259.28125 936.714844 1259.28125 938.15625 1258.199219 938.15625 C 1257.300781 938.15625 1256.941406 937.613281 1256.941406 937.074219 C 1256.761719 935.8125 1256.761719 934.191406 1256.398438 932.566406 C 1255.859375 930.046875 1253.878906 928.0625 1249.191406 927.703125 C 1246.671875 927.523438 1234.050781 927.34375 1230.988281 927.34375 C 1230.449219 927.34375 1230.269531 927.882813 1230.269531 928.605469 L 1230.269531 938.515625 C 1230.269531 942.839844 1230.089844 954.375 1230.269531 957.976563 C 1230.449219 966.628906 1232.609375 968.609375 1245.589844 968.609375 C 1249.011719 968.609375 1254.238281 968.609375 1257.660156 967.167969 C 1260.898438 965.546875 1262.53125 963.023438 1263.429688 957.796875 C 1263.789063 956.355469 1263.96875 955.816406 1264.871094 955.816406 C 1265.949219 955.816406 1265.949219 956.894531 1265.949219 958.15625 C 1265.949219 961.042969 1264.871094 969.511719 1264.328125 972.214844 C 1263.429688 975.457031 1262.351563 975.457031 1257.300781 975.457031 C 1247.75 975.457031 1240.71875 975.277344 1235.140625 975.097656 C 1229.550781 974.917969 1225.578125 974.734375 1221.800781 974.734375 C 1220.359375 974.734375 1217.660156 974.917969 1214.589844 974.917969 C 1211.710938 975.097656 1208.28125 975.097656 1205.761719 975.097656 C 1204.140625 975.097656 1203.238281 974.734375 1203.238281 973.835938 C 1203.238281 973.113281 1203.78125 972.753906 1205.21875 972.753906 C 1207.199219 972.753906 1208.640625 972.574219 1209.910156 972.214844 C 1212.429688 971.671875 1213.148438 968.96875 1213.691406 965.1875 C 1214.410156 959.960938 1214.410156 949.867188 1214.410156 938.335938 L 1214.410156 915.988281 L 1214.589844 915.988281 "/>
<path style=" stroke:none;fill-rule:nonzero;fill:rgb(7.099915%,33.299255%,54.899597%);fill-opacity:1;" d="M 1311.359375 926.082031 C 1311.359375 927.523438 1311.539063 927.882813 1312.441406 928.242188 C 1315.148438 929.144531 1318.929688 929.503906 1322.171875 929.503906 C 1327.21875 929.503906 1329.019531 928.964844 1331.359375 927.34375 C 1335.148438 924.640625 1338.941406 918.691406 1338.941406 908.421875 C 1338.941406 890.578125 1326.859375 885.355469 1319.289063 885.355469 C 1316.050781 885.355469 1313.878906 885.535156 1312.441406 885.894531 C 1311.539063 886.074219 1311.359375 886.617188 1311.359375 887.695313 Z M 1296.230469 915.988281 C 1296.230469 896.886719 1296.230469 893.285156 1296.039063 889.320313 C 1295.679688 884.992188 1294.78125 883.011719 1290.460938 882.109375 C 1289.378906 881.75 1287.210938 881.75 1285.410156 881.75 C 1283.96875 881.75 1283.25 881.570313 1283.25 880.667969 C 1283.25 879.769531 1284.148438 879.585938 1286.128906 879.585938 C 1292.980469 879.585938 1301.089844 879.949219 1303.609375 879.949219 C 1307.941406 879.949219 1317.671875 879.585938 1321.628906 879.585938 C 1329.738281 879.585938 1338.210938 880.308594 1345.238281 884.992188 C 1348.851563 887.335938 1353.890625 893.824219 1353.890625 902.292969 C 1353.890625 911.664063 1349.929688 920.132813 1336.949219 930.585938 C 1348.300781 944.640625 1357.128906 955.996094 1364.699219 963.742188 C 1371.910156 971.132813 1377.140625 971.851563 1379.121094 972.394531 C 1380.558594 972.574219 1381.640625 972.753906 1382.71875 972.753906 C 1383.808594 972.753906 1384.351563 973.113281 1384.351563 973.835938 C 1384.351563 974.917969 1383.441406 975.097656 1381.820313 975.097656 L 1369.570313 975.097656 C 1362.359375 975.097656 1359.300781 974.558594 1355.871094 972.753906 C 1350.289063 969.871094 1345.601563 963.925781 1338.390625 954.191406 C 1333.171875 947.34375 1327.398438 938.695313 1325.78125 936.894531 C 1325.058594 936.171875 1324.339844 935.992188 1323.441406 935.992188 L 1312.261719 935.8125 C 1311.71875 935.8125 1311.179688 935.992188 1311.179688 936.894531 L 1311.179688 938.695313 C 1311.179688 950.410156 1311.179688 960.320313 1311.898438 965.726563 C 1312.261719 969.332031 1313.160156 972.214844 1316.949219 972.753906 C 1318.929688 972.933594 1321.628906 973.292969 1323.261719 973.292969 C 1324.339844 973.292969 1324.878906 973.65625 1324.878906 974.375 C 1324.878906 975.277344 1323.980469 975.636719 1322.351563 975.636719 C 1314.96875 975.636719 1305.421875 975.277344 1303.429688 975.277344 C 1301.089844 975.277344 1292.980469 975.636719 1287.761719 975.636719 C 1286.128906 975.636719 1285.230469 975.277344 1285.230469 974.375 C 1285.230469 973.65625 1285.769531 973.292969 1287.210938 973.292969 C 1289.199219 973.292969 1290.640625 973.113281 1291.898438 972.753906 C 1294.421875 972.214844 1295.140625 969.511719 1295.679688 965.726563 C 1296.398438 960.5 1296.398438 950.410156 1296.398438 938.875 L 1296.398438 915.988281 L 1296.230469 915.988281 "/>
<path style=" stroke:none;fill-rule:nonzero;fill:rgb(7.099915%,33.299255%,54.899597%);fill-opacity:1;" d="M 1384.699219 973.292969 C 1382.71875 972.394531 1382.359375 971.851563 1382.359375 968.96875 C 1382.359375 962.121094 1382.898438 954.554688 1383.089844 952.390625 C 1383.261719 950.410156 1383.621094 949.148438 1384.699219 949.148438 C 1385.96875 949.148438 1385.96875 950.230469 1385.96875 951.308594 C 1385.96875 952.929688 1386.511719 955.632813 1387.050781 957.796875 C 1389.929688 967.167969 1397.5 970.589844 1405.429688 970.589844 C 1416.960938 970.589844 1422.550781 962.84375 1422.550781 956.175781 C 1422.550781 950.046875 1420.570313 944.101563 1409.941406 935.992188 L 1403.988281 931.488281 C 1389.929688 920.675781 1385.070313 911.84375 1385.070313 901.574219 C 1385.070313 887.695313 1396.960938 877.785156 1414.621094 877.785156 C 1422.910156 877.785156 1428.320313 879.046875 1431.738281 879.949219 C 1432.820313 880.128906 1433.539063 880.667969 1433.539063 881.570313 C 1433.539063 883.191406 1433 886.796875 1433 896.707031 C 1433 899.410156 1432.640625 900.492188 1431.558594 900.492188 C 1430.660156 900.492188 1430.300781 899.769531 1430.300781 898.148438 C 1430.300781 897.066406 1429.578125 893.101563 1426.871094 889.859375 C 1424.890625 887.515625 1421.289063 883.730469 1412.820313 883.730469 C 1403.269531 883.730469 1397.5 889.136719 1397.5 896.707031 C 1397.5 902.472656 1400.378906 906.976563 1411.199219 914.90625 L 1414.800781 917.609375 C 1430.300781 929.324219 1435.878906 937.792969 1435.878906 949.6875 C 1435.878906 957.078125 1433 965.726563 1423.808594 971.671875 C 1417.320313 975.636719 1410.109375 976.898438 1403.449219 976.898438 C 1396.058594 976.539063 1390.289063 975.636719 1384.699219 973.292969 "/>
<path style=" stroke:none;fill-rule:nonzero;fill:rgb(7.099915%,33.299255%,54.899597%);fill-opacity:1;" d="M 1467.058594 915.988281 C 1467.058594 896.886719 1467.058594 893.285156 1466.878906 889.320313 C 1466.699219 884.992188 1465.261719 882.832031 1462.558594 882.289063 C 1461.109375 881.929688 1459.488281 881.75 1457.871094 881.75 C 1456.609375 881.75 1455.890625 881.570313 1455.890625 880.488281 C 1455.890625 879.769531 1456.96875 879.40625 1458.949219 879.40625 C 1463.820313 879.40625 1471.929688 879.769531 1475.53125 879.769531 C 1478.769531 879.769531 1486.339844 879.40625 1491.210938 879.40625 C 1492.828125 879.40625 1493.910156 879.585938 1493.910156 880.488281 C 1493.910156 881.570313 1493.191406 881.75 1491.929688 881.75 C 1490.671875 881.75 1489.589844 881.929688 1488.140625 882.109375 C 1484.71875 882.652344 1483.640625 884.8125 1483.460938 889.320313 C 1483.28125 893.285156 1483.28125 896.886719 1483.28125 915.988281 L 1483.28125 938.15625 C 1483.28125 950.410156 1483.28125 960.320313 1483.820313 965.726563 C 1484.179688 969.148438 1485.078125 971.3125 1488.859375 971.851563 C 1490.671875 972.035156 1493.550781 972.394531 1495.351563 972.394531 C 1496.789063 972.394531 1497.339844 972.753906 1497.339844 973.476563 C 1497.339844 974.375 1496.441406 974.738281 1494.988281 974.738281 C 1486.519531 974.738281 1478.410156 974.375 1474.988281 974.375 C 1471.929688 974.375 1464 974.738281 1458.769531 974.738281 C 1457.148438 974.738281 1456.25 974.375 1456.25 973.476563 C 1456.25 972.753906 1456.789063 972.394531 1458.230469 972.394531 C 1460.210938 972.394531 1461.648438 972.214844 1462.921875 971.851563 C 1465.441406 971.3125 1466.160156 969.148438 1466.699219 965.546875 C 1467.421875 960.320313 1467.421875 950.230469 1467.421875 937.976563 L 1467.421875 915.988281 L 1467.058594 915.988281 "/>
<path style=" stroke:none;fill-rule:nonzero;fill:rgb(7.099915%,33.299255%,54.899597%);fill-opacity:1;" d="M 1542.75 886.617188 L 1523.648438 887.15625 C 1516.261719 887.335938 1513.191406 888.058594 1511.210938 890.761719 C 1509.949219 892.742188 1509.230469 894.183594 1509.050781 895.085938 C 1508.691406 896.167969 1508.328125 896.527344 1507.609375 896.527344 C 1506.710938 896.527344 1506.351563 895.988281 1506.351563 894.542969 C 1506.351563 892.5625 1508.871094 881.03125 1509.050781 879.949219 C 1509.410156 878.328125 1509.769531 877.605469 1510.671875 877.605469 C 1511.75 877.605469 1513.011719 878.867188 1516.261719 879.226563 C 1520.039063 879.585938 1524.910156 879.769531 1529.050781 879.769531 L 1579.871094 879.769531 C 1584.019531 879.769531 1586.71875 879.40625 1588.699219 879.226563 C 1590.679688 878.867188 1591.578125 878.6875 1592.121094 878.6875 C 1593.019531 878.6875 1593.199219 879.40625 1593.199219 881.390625 C 1593.199219 884.09375 1592.839844 892.742188 1592.839844 895.988281 C 1592.660156 897.246094 1592.480469 897.96875 1591.761719 897.96875 C 1590.679688 897.96875 1590.5 897.246094 1590.320313 895.445313 L 1590.140625 894.003906 C 1589.960938 890.761719 1586.359375 887.15625 1575 886.976563 L 1558.78125 886.617188 L 1558.78125 938.335938 C 1558.78125 949.867188 1558.78125 959.960938 1559.511719 965.367188 C 1559.871094 968.96875 1560.589844 971.671875 1564.550781 972.214844 C 1566.351563 972.394531 1569.058594 972.753906 1571.039063 972.753906 C 1572.480469 972.753906 1573.019531 973.113281 1573.019531 973.835938 C 1573.019531 974.738281 1571.941406 975.097656 1570.5 975.097656 C 1562.03125 975.097656 1553.921875 974.738281 1550.320313 974.738281 C 1547.429688 974.738281 1539.320313 975.097656 1534.28125 975.097656 C 1532.660156 975.097656 1531.75 974.738281 1531.75 973.835938 C 1531.75 973.113281 1532.289063 972.753906 1533.738281 972.753906 C 1535.71875 972.753906 1537.160156 972.574219 1538.421875 972.214844 C 1540.941406 971.671875 1541.851563 968.96875 1542.210938 965.1875 C 1542.929688 959.960938 1542.929688 949.867188 1542.929688 938.335938 L 1542.929688 886.617188 L 1542.75 886.617188 "/>
<path style=" stroke:none;fill-rule:nonzero;fill:rgb(7.099915%,33.299255%,54.899597%);fill-opacity:1;" d="M 1632.308594 942.117188 C 1632.308594 935.273438 1631.050781 932.566406 1629.429688 928.964844 C 1628.519531 926.980469 1611.410156 899.230469 1606.898438 892.742188 C 1603.660156 888.058594 1600.410156 884.992188 1598.070313 883.550781 C 1596.449219 882.652344 1594.289063 881.929688 1592.660156 881.929688 C 1591.578125 881.929688 1590.679688 881.75 1590.679688 880.847656 C 1590.679688 880.128906 1591.578125 879.769531 1593.199219 879.769531 C 1595.550781 879.769531 1605.101563 880.128906 1609.421875 880.128906 C 1612.128906 880.128906 1617.351563 879.769531 1623.121094 879.769531 C 1624.378906 879.769531 1625.101563 880.128906 1625.101563 880.847656 C 1625.101563 881.570313 1624.199219 881.75 1622.21875 882.289063 C 1621.140625 882.652344 1620.421875 883.550781 1620.421875 884.632813 C 1620.421875 885.714844 1621.140625 887.15625 1622.039063 888.957031 C 1623.839844 892.742188 1641.859375 923.199219 1643.839844 926.621094 C 1645.101563 923.558594 1661.320313 895.804688 1663.121094 892.023438 C 1664.390625 889.320313 1664.929688 887.15625 1664.929688 885.535156 C 1664.929688 884.273438 1664.390625 882.832031 1662.21875 882.289063 C 1661.140625 882.109375 1659.878906 881.75 1659.878906 881.03125 C 1659.878906 880.128906 1660.601563 879.949219 1662.039063 879.949219 C 1666.371094 879.949219 1670.328125 880.308594 1674.121094 880.308594 C 1677 880.308594 1685.46875 879.949219 1687.808594 879.949219 C 1689.261719 879.949219 1690.160156 880.128906 1690.160156 881.03125 C 1690.160156 881.929688 1689.070313 882.289063 1687.808594 882.289063 C 1686.550781 882.289063 1684.03125 882.832031 1682.230469 883.914063 C 1679.519531 885.175781 1678.078125 886.617188 1675.378906 890.039063 C 1671.230469 895.085938 1653.210938 924.820313 1650.871094 930.226563 C 1648.890625 934.730469 1648.890625 938.695313 1648.890625 942.839844 L 1648.890625 953.292969 C 1648.890625 955.273438 1648.890625 960.5 1649.25 965.90625 C 1649.429688 969.511719 1650.691406 972.394531 1654.480469 972.933594 C 1656.28125 973.117188 1659.160156 973.476563 1660.960938 973.476563 C 1662.398438 973.476563 1662.941406 973.835938 1662.941406 974.558594 C 1662.941406 975.457031 1661.859375 975.816406 1660.238281 975.816406 C 1652.128906 975.816406 1644.019531 975.457031 1640.601563 975.457031 C 1637.351563 975.457031 1629.25 975.816406 1624.558594 975.816406 C 1622.761719 975.816406 1621.679688 975.636719 1621.679688 974.558594 C 1621.679688 973.835938 1622.21875 973.476563 1623.660156 973.476563 C 1625.460938 973.476563 1627.078125 973.292969 1628.171875 972.933594 C 1630.691406 972.394531 1631.949219 969.691406 1632.128906 965.90625 C 1632.488281 960.679688 1632.488281 955.273438 1632.488281 953.292969 L 1632.488281 942.117188 L 1632.308594 942.117188 "/>
</g>
</svg>
